<?xml version="1.0" encoding="UTF-8"?>
<svg id="Layer_2" data-name="Layer 2" xmlns="http://www.w3.org/2000/svg" viewBox="0 0 410.08 284.5">
  <g id="car_interior" data-name="car interior">
    <rect width="410.08" height="284.5" style="fill: #fff;"/>
    <g id="left_-_mirror" data-name="left - mirror">
      <path d="M57.08,121.89l-19.12-.81s-4.64,.26-6.16-1.21c-1.76-1.69-2.33-4.82-2.2-7.23s.88-7.47,3.3-10.12c1.22-1.33,4.18-1.69,4.18-1.69,0,0,8.37-1.93,16.58-2.65s12.52-.17,15.78,1.93c3.74,2.41,7.44,7.02,8.86,9.31,1.71,2.75,3.47,5.64,3.47,5.64h2.09l.55,3.13-27.33,3.7Z" style="fill: #999;"/>
    </g>
    <g id="right_-_mirror" data-name="right - mirror">
      <path d="M349.16,126.32l20.67-1.66s4.84,.25,6.43-1.18c1.84-1.66,2.43-4.74,2.3-7.11s-.92-7.34-3.45-9.95c-1.27-1.31-4.36-1.66-4.36-1.66,0,0-8.73-1.9-17.3-2.61s-13.07-.16-16.46,1.9c-3.9,2.37-7.76,6.9-9.24,9.15-1.78,2.7-3.62,5.54-3.62,5.54h-2.18l-.57,3.08,27.79,4.5Z" style="fill: #999;"/>
    </g>
    <path id="outline" d="M322.06,119.1l.08-.36,3.52-14.99,52.92-32.7V25.78H30.81v41.24l49.54,32.22,3.35,15.81,.09,.44,.57,2.7,.05,.23-20.15,2.5-7.69,.95-.18,.02-25.58,3.16v132.57H378.58v-126.65l-57.21-8.94,.05-.2,.64-2.73Zm-37.47-4.97h-49.82c-1.06-2.31-3.41-3.92-6.13-3.92h-51.5c-2.72,0-5.06,1.61-6.13,3.92h-15.74c-6.49-8.76-16.91-14.44-28.66-14.44-5.9,0-11.47,1.43-16.37,3.97l-44.77-55.36c-3.96-4.5-.76-11.58,5.24-11.58H335.92c6.54,0,10.03,7.72,5.7,12.63l-57.03,64.78Z" style="fill: none; stroke: #000; stroke-miterlimit: 10; stroke-width: 3.08px;"/>
    <path id="center_consule" data-name="center consule" d="M219.93,149.13s-1.75,24.62-.17,31.62c.97,4.27,2.76,19.72,2.76,19.72,0,0,4.29,4.74,5.64,15.57,1.27,10.19,7.84,40.31,7.84,40.31l-73.29,.09,9.25-40.17s1.13-5.42,4.51-13.77c1.4-3.46,3.61-3.16,3.61-3.16,0,0,3.55-14.91,4.51-19.18,1.58-7,.45-30.92,.45-30.92l34.87-.11Z"/>
    <path id="steering_wheel" data-name="steering wheel" d="M162.27,135.35c0,19.69-15.96,35.65-35.66,35.65s-35.65-15.96-35.65-35.65c0-13.8,7.83-25.76,19.28-31.69,4.9-2.54,10.47-3.97,16.37-3.97,11.75,0,22.17,5.68,28.66,14.44,4.4,5.93,7,13.27,7,21.22Z" style="stroke: #000; stroke-miterlimit: 10; stroke-width: .68px;"/>
    <line id="rearview_mirror_mount" data-name="rearview mirror mount" x1="186.08" y1="36.5" x2="187.55" y2="45.75" style="fill: none; stroke: #000; stroke-miterlimit: 10; stroke-width: 3.08px;"/>
    <line id="rearview_mirror_mount-2" data-name="rearview mirror mount" x1="221.08" y1="36.5" x2="219.08" y2="47.5" style="fill: none; stroke: #000; stroke-miterlimit: 10; stroke-width: 3.08px;"/>
    <path id="right_-_seat" data-name="right - seat" d="M378.47,219.52l-32.24,14.22s-10.11-17.03-15.78-22.79c-5.89-5.98-12.23-12.64-20.23-14.67s-24.44-3.51-33.12-3.61c-9.89-.11-38.46,1.13-38.46,1.13,0,0-5.22,.56-7.34,5.19-1.34,2.93-2.22,9.09-1.78,11.09s9.95,47.53,9.95,47.53l139.11,.02-.11-38.1Z"/>
    <path id="left_-_seat" data-name="left - seat" d="M30.69,195.32l30.05,17.99s6.65,4.02,11.9-1.74,12.15-12.21,19.14-15.41c8.87-4.06,25.01-4.87,33.04-4.96,9.15-.11,38.8,.9,38.8,.9,0,0,8.87,0,10.64,6.77,.65,2.49-3.33,12.86-3.99,15.12-.58,1.96-11.08,43.33-11.08,43.33l-128.62,.02,.1-62.02Z"/>
    <rect id="gas_pedal" data-name="gas pedal" x="173.56" y="164.8" width="6.87" height="14.89" rx="2.3" ry="2.3"/>
    <rect id="brake_pedal" data-name="brake pedal" x="154.33" y="163.29" width="10.38" height="13.84" rx="3.95" ry="3.95" transform="translate(-10.69 329.74) rotate(-90)"/>
    <path id="rearview_mirror" data-name="rearview mirror" d="M229.41,52.11v1.62c0,3.45-2.8,6.24-6.25,6.24h-38.06c-3.45,0-6.24-2.79-6.24-6.24v-1.62c0-3.45,2.79-6.25,6.24-6.25h38.06c3.45,0,6.25,2.8,6.25,6.25Z" style="fill: #999;"/>
    <path d="M238.87,113.5v29.52c0,4.14-3.36,7.5-7.5,7.5h-57.28c-4.15,0-7.51-3.36-7.51-7.5v-29.52c0-.46,.04-.91,.12-1.34,.11-.63,.31-1.24,.57-1.8,1.18-2.57,3.79-4.36,6.81-4.36h57.28c3.03,0,5.63,1.79,6.81,4.36,.26,.56,.45,1.17,.56,1.8,.08,.44,.12,.88,.12,1.34Z" style="fill: #333;"/>
  </g>
</svg>