<?xml version="1.0" encoding="UTF-8"?><svg id="Layer_2" xmlns="http://www.w3.org/2000/svg" viewBox="0 0 350.84 234.92"><defs><style>.cls-1{stroke-width:3.08px;}.cls-1,.cls-2{fill:none;}.cls-1,.cls-2,.cls-3{stroke:#000;stroke-miterlimit:10;}.cls-4{fill:#333;}.cls-2,.cls-3{stroke-width:.68px;}.cls-5{fill:#999;}</style></defs><g id="Layer_1-2"><path class="cls-1" d="M296.38,79.51l52.92-32.7V1.54H1.54V42.78l49.54,32.21,3.44,16.25,.62,2.93-28.02,3.47-25.58,3.17V233.38H349.3V106.73l-57.21-8.94,.69-2.93,3.6-15.35Zm-41.07,10.38h-49.82c-1.07-2.32-3.41-3.92-6.13-3.92h-51.5c-2.72,0-5.06,1.61-6.13,3.92h-15.74c-6.49-8.76-16.91-14.44-28.66-14.44-5.9,0-11.47,1.43-16.37,3.97L36.19,24.06c-3.96-4.51-.76-11.58,5.24-11.58H306.64c6.54,0,10.03,7.72,5.71,12.63l-57.03,64.78Z"/><path d="M190.65,125.89s-1.75,24.62-.17,31.62c.97,4.27,2.76,19.72,2.76,19.72,0,0,4.29,4.74,5.64,15.57,1.27,10.19,7.84,40.31,7.84,40.31l-73.29,.09,9.25-40.17s1.13-5.42,4.51-13.77c1.4-3.46,3.61-3.16,3.61-3.16,0,0,3.55-14.91,4.51-19.18,1.58-7,.45-30.92,.45-30.92l34.87-.11Z"/><path class="cls-2" d="M126,89.89h-36.56l-4.58-5.66-3.9-4.81c4.9-2.54,10.47-3.97,16.37-3.97,11.75,0,22.17,5.68,28.66,14.44Z"/><path class="cls-2" d="M205.5,89.89h-63.76c1.07-2.32,3.41-3.92,6.13-3.92h51.5c2.72,0,5.06,1.61,6.13,3.92Z"/><path class="cls-3" d="M132.99,111.1c0,19.69-15.96,35.66-35.66,35.66s-35.66-15.96-35.66-35.66c0-13.79,7.83-25.75,19.29-31.68,4.9-2.54,10.47-3.97,16.37-3.97,11.75,0,22.17,5.68,28.66,14.44,4.4,5.93,7,13.27,7,21.21Z"/><rect class="cls-5" x="149.58" y="21.62" width="50.55" height="14.11" rx="6.24" ry="6.24"/><line class="cls-1" x1="156.92" y1="12.71" x2="158.27" y2="21.51"/><path class="cls-4" d="M206.11,92.71v26.54c0,3.73-3.02,6.75-6.75,6.75h-51.5c-3.73,0-6.75-3.02-6.75-6.75v-26.54c0-1.01,.22-1.96,.62-2.82,1.07-2.32,3.41-3.92,6.13-3.92h51.5c2.72,0,5.06,1.61,6.13,3.92,.4,.86,.62,1.81,.62,2.82Z"/><line class="cls-1" x1="191.34" y1="12.81" x2="189.98" y2="21.61"/><path class="cls-5" d="M27.8,97.65l-19.12-.81s-4.64,.26-6.16-1.21c-1.76-1.69-2.33-4.82-2.2-7.23s.88-7.47,3.3-10.12c1.22-1.33,4.18-1.69,4.18-1.69,0,0,8.37-1.93,16.58-2.65s12.52-.17,15.78,1.93c3.74,2.41,7.44,7.02,8.86,9.31,1.71,2.75,3.47,5.64,3.47,5.64h2.09l.55,3.13-27.33,3.7Z"/><path class="cls-5" d="M319.89,102.08l20.67-1.66s4.84,.25,6.43-1.18c1.84-1.66,2.43-4.74,2.3-7.11s-.92-7.34-3.45-9.95c-1.27-1.31-4.36-1.66-4.36-1.66,0,0-8.73-1.9-17.3-2.61s-13.07-.16-16.46,1.9c-3.9,2.37-7.76,6.9-9.24,9.15-1.78,2.7-3.62,5.54-3.62,5.54h-2.18l-.57,3.08,27.79,4.5Z"/><path class="cls-2" d="M193.25,177.23s-11.51-1.81-22.12-1.58c-10.61,.23-20.31,.45-20.31,.45"/><path d="M349.19,195.28l-32.24,14.22s-10.11-17.03-15.78-22.79c-5.89-5.98-12.23-12.64-20.23-14.67s-24.44-3.51-33.12-3.61c-9.89-.11-38.46,1.13-38.46,1.13,0,0-5.22,.56-7.34,5.19-1.34,2.93-2.22,9.09-1.78,11.09s9.95,47.53,9.95,47.53l139.11,.02-.11-38.1Z"/><path d="M1.42,171.08l30.05,17.99s6.65,4.02,11.9-1.74,12.15-12.21,19.14-15.41c8.87-4.06,25.01-4.87,33.04-4.96,9.15-.11,38.8,.9,38.8,.9,0,0,8.87,0,10.64,6.77,.65,2.49-3.33,12.86-3.99,15.12-.58,1.96-11.08,43.33-11.08,43.33l-128.62,.02,.1-62.02Z"/><rect x="144.29" y="140.55" width="6.87" height="14.89" rx="3.44" ry="3.44"/><rect x="125.06" y="139.05" width="10.38" height="13.84" rx="5.19" ry="5.19" transform="translate(-15.72 276.22) rotate(-90)"/></g></svg>