<?xml version="1.0" encoding="utf-8"?>
<!-- Generator: Adobe Illustrator 26.0.2, SVG Export Plug-In . SVG Version: 6.00 Build 0)  -->
<svg version="1.1" id="Layer_1" xmlns="http://www.w3.org/2000/svg" xmlns:xlink="http://www.w3.org/1999/xlink" x="0px" y="0px"
	 viewBox="0 0 51.2 82.5" style="enable-background:new 0 0 51.2 82.5;" xml:space="preserve">
<style type="text/css">
	.st0{fill:#FFFFFF;}
</style>
<g id="Layer_2_00000129181833378365947430000003869675047236044702_">
	<g id="icons">
		<g id="Speaker">
			<path id="speaker_box" class="st0" d="M40.3,0H10.9C4.9,0,0,4.9,0,10.9v60.8c0,6,4.9,10.8,10.9,10.9h29.5c6,0,10.8-4.9,10.9-10.9
				V10.9C51.2,4.9,46.3,0,40.3,0z M25.3,7.1c7.5,0,13.5,6.1,13.5,13.5s-6.1,13.5-13.5,13.5c-7.4,0-13.5-6.1-13.5-13.5
				C11.8,13.2,17.8,7.1,25.3,7.1C25.3,7.1,25.3,7.1,25.3,7.1L25.3,7.1z M25.3,74c-9.8,0-17.8-7.9-17.8-17.8
				c0-9.8,7.9-17.8,17.8-17.8c9.8,0,17.8,7.9,17.8,17.7C43.1,66,35.2,74,25.3,74z"/>
			<circle id="big_speaker" class="st0" cx="25.1" cy="20.8" r="10.4"/>
			<circle id="small_speaker" class="st0" cx="25.2" cy="56.3" r="14.1"/>
		</g>
	</g>
</g>
</svg>
